<?xml version="1.0" encoding="utf-8"?>
<!-- Generator: Adobe Illustrator 25.0.1, SVG Export Plug-In . SVG Version: 6.00 Build 0)  -->
<svg version="1.1" id="레이어_1" xmlns="http://www.w3.org/2000/svg" xmlns:xlink="http://www.w3.org/1999/xlink" x="0px"
	 y="0px" viewBox="0 0 2000 2000" style="enable-background:new 0 0 2000 2000;" xml:space="preserve">
<style type="text/css">
	.st0{fill:#F4D823;}
	.st1{fill:#FFFFFF;}
	.st2{font-family:'NimbusSan-Bol';}
	.st3{font-size:50.5406px;}
</style>
<g>
	<polygon class="st0" points="81.4,1093.3 164.7,1175.6 164.7,1011 	"/>
	<g>
		<path class="st1" d="M958.5,1072.7L846.9,961.1l336-336l-56.4-56.4L902.2,793c-31,31-68.2,46.3-111.6,46
			c-43.8,0-81.2-15.5-112.2-46.5l-55.8-55.8c-31-31-46.5-68.4-46.5-112.2s15.3-81,46-111.6l336.6-336.6l54.7-54.7l112.2,112.2
			l-54.7,54.7L788.9,570.3l55.8,55.8l169.6-169.6l54.7-54.7c31-31,68.6-46.3,112.7-46c43.8,0,81,15.3,111.6,46l56.4,56.4
			c31,31,46.3,68.2,46,111.6c0,43.8-15.5,81.2-46.5,112.2l-54.7,54.7L958.5,1072.7z M958.5,1050.8l325.1-325.1
			c28.1-28.1,42.1-61.8,42.1-101.2c0.4-39-13.5-72.6-41.6-100.7l-56.4-56.4c-27.7-27.7-61.3-41.6-100.7-41.6
			c-39.8-0.4-73.7,13.5-101.8,41.6L790,702.8L712.3,625l336.6-336.6l-90.3-90.3L632.9,523.8c-27.7,27.7-41.6,61.3-41.6,100.7
			c0,39.4,14,73.2,42.1,101.2l55.8,55.8c28.1,28.1,61.8,42.1,101.2,42.1c39,0.4,72.6-13.5,100.7-41.6l235.3-235.3l78.3,78.3
			l-336,336L958.5,1050.8z"/>
		<path class="st1" d="M1658.9,1325.4c-61.7,61.7-136.3,92.5-223.8,92.5s-162.2-30.8-223.8-92.5c-62-62-93-136.8-93-224.4
			s30.8-162.2,92.5-223.8L1322.9,765l54.7-54.7l112.2,112.2l-54.7,54.7l-57.5,57.5c-31,31-46.3,68.2-46,111.6
			c-0.4,44.2,15,81.7,46,112.7s68.4,46.2,112.2,45.4c30.3,0.4,57.5-6.7,81.5-21.3c14.6-24.1,21.9-51.4,21.9-82.1
			c0.4-43.4-15-80.6-46-111.6l112.2-112.2l54.7-54.7l223.8,223.8l-54.7,54.7l-112.2,112.2c-0.7,0.7-1.6,1.6-2.7,2.7l-54.7,54.7
			L1658.9,1325.4z M1647.9,1314.4c39.8-39.8,66.2-84.4,79.3-134.1l6.6-26.3l37.2,37.2l90.3-90.3L1659.4,899l-90.8,90.8
			c27,32.1,40.3,69.1,39.9,111.1c0.4,48.5-16.4,89.8-50.3,123.7c-33.9,33.9-75,50.5-123.1,49.8c-48.2,0.7-89.2-15.9-123.1-49.8
			s-50.7-75.2-50.3-123.7c-0.4-47.8,16.4-88.7,50.3-122.6l101.2-101.2l-90.3-90.3l-101.2,101.2c-58.8,58.8-88.1,129.7-88.1,212.9
			c0,83.2,29.6,154.3,88.7,213.4c58.8,58.8,129.7,88.1,212.9,88.1S1589.2,1373.2,1647.9,1314.4z"/>
		<g>
			<path class="st1" d="M493.8,1340.4l246.3-246.3l-78.3-78.3l-246.3,246.3L493.8,1340.4z M492.2,1207.4l169.6-169.7l56.4,56.4
				l-169.7,169.7L492.2,1207.4z"/>
			<path class="st1" d="M868.8,961.1l24.8-24.8c-2.7-3.1-5.5-6.1-8.5-9.1l-56.4-56.4c-20.4-20.4-44-34.1-70.6-41
				c-0.9-3.5-1.9-6.9-3.1-10.2c-24.6-6-46.5-18.7-65.8-38l-55.8-55.8c-18.4-18.4-30.8-39.2-37.1-62.5c-15-4.6-30.9-6.9-47.8-6.9
				c-43.8,0-81.2,15.5-112.2,46.5l-54.7,54.7l-336,336l448.2,448.2l336-336l54.7-54.7c31-31,46.5-68.4,46.5-112.2
				c0-5.4-0.2-10.8-0.6-16.1L868.8,961.1z M650.9,824.3c19,19,31.6,40.3,37.8,64l2.2,8.8l8.8,2.2c23.7,6.2,44.9,18.6,63.5,37.2
				l56.4,56.4c28.1,28.1,42,61.7,41.6,100.7c0,39.4-14,73.2-42.1,101.2l-325.1,325.1L67.5,1093.6l325.1-325.1
				c28.1-28.1,61.8-42.1,101.2-42.1s73.1,14,101.2,42.1L650.9,824.3z"/>
			<path class="st1" d="M325.3,1171.8l246.3-246.3l-77.7-77.7l-246.3,246.3L325.3,1171.8z M324.2,1039.4l169.6-169.7l55.8,55.8
				L380,1095.2L324.2,1039.4z"/>
		</g>
		<path class="st1" d="M1222.2,1314.4c-1.8-1.8-3.5-3.6-5.2-5.4l-29.7,29.7L1075,1450.9c31,31,46.3,68.2,46,111.6
			c0,30.7-7.3,58-21.9,82.1c-24.1,14.6-51.3,21.7-81.5,21.3c-43.8,0.7-81.2-14.4-112.2-45.4c-31-31-46.3-68.6-46-112.7
			c-0.4-43.4,15-80.6,46-111.6l57.5-57.5l54.7-54.7l-112.2-112.2l-54.7,54.7l-112.2,112.2c-61.7,61.7-92.5,136.3-92.5,223.8
			s31,162.4,93,224.4c61.7,61.7,136.3,92.5,223.8,92.5s162.2-30.8,223.8-92.5l54.7-54.7l54.7-54.7c1.1-1.1,2-2,2.7-2.7l112.2-112.2
			l54.7-54.7l-117.1-117.1C1301.6,1377.1,1259.4,1351.7,1222.2,1314.4z M1389.2,1562.6l-90.3,90.3l-37.2-37.2l-6.6,26.3
			c-13.1,49.6-39.6,94.3-79.3,134.1c-58.8,58.8-129.7,88.1-212.9,88.1S808.7,1834.8,750,1776c-59.1-59.1-88.7-130.2-88.7-213.4
			c0-83.2,29.4-154.1,88.1-212.9l101.2-101.2l90.3,90.3L839.7,1440c-33.9,33.9-50.7,74.8-50.3,122.6c-0.4,48.5,16.4,89.8,50.3,123.7
			s75,50.5,123.1,49.8c48.2,0.7,89.2-15.9,123.1-49.8c33.9-33.9,50.7-75.2,50.3-123.7c0.4-41.9-13-79-39.9-111.1l90.8-90.8
			L1389.2,1562.6z"/>
	</g>
</g>
<g>
	<text transform="matrix(1 0 0 1 1303.8782 1770.8289)" class="st2 st3">For.</text>
	
		<image style="overflow:visible;enable-background:new    ;" width="600" height="350" xlink:href="683AD55D.png"  transform="matrix(0.7952 0 0 0.7952 1384.2684 1644.1622)">
	</image>
</g>
</svg>
